<svg width="22" height="15" viewBox="0 0 22 15" fill="none" xmlns="http://www.w3.org/2000/svg">
<path d="M21.4986 1.01719C21.6497 0.43125 21.4986 0 20.7716 0H18.3661C17.7535 0 17.4717 0.370312 17.3206 0.782812C17.3206 0.782812 16.0954 4.20937 14.3637 6.43125C13.8042 7.07344 13.5469 7.27969 13.2406 7.27969C13.0895 7.27969 12.8567 7.07344 12.8567 6.4875V1.01719C12.8567 0.314062 12.6852 0 12.1787 0H8.39687C8.01297 0 7.78426 0.328125 7.78426 0.632812C7.78426 1.29844 8.65009 1.45312 8.73993 3.32812V7.39687C8.73993 8.2875 8.60108 8.45156 8.29477 8.45156C7.47795 8.45156 5.49309 5.01094 4.31687 1.07344C4.08 0.309375 3.8472 0 3.23051 0H0.824984C0.138859 0 0 0.370312 0 0.782812C0 1.51406 0.816816 5.14688 3.80228 9.94688C5.79123 13.2234 8.59291 15 11.1414 15C12.6729 15 12.8608 14.6063 12.8608 13.9266C12.8608 10.7953 12.7219 10.5 13.4897 10.5C13.845 10.5 14.4576 10.7063 15.8871 12.2859C17.5207 14.1609 17.7903 15 18.7051 15H21.1106C21.7967 15 22.1439 14.6062 21.9438 13.8281C21.4864 12.1922 18.3947 8.82656 18.2558 8.60156C17.9005 8.07656 18.0026 7.84219 18.2558 7.37344C18.2599 7.36875 21.1964 2.625 21.4986 1.01719Z" fill="white"/>
</svg>
