<svg width="146" height="57" viewBox="0 0 146 57" fill="none" xmlns="http://www.w3.org/2000/svg">
<path fill-rule="evenodd" clip-rule="evenodd" d="M124.985 51.5663H145.994L126.709 24.3591L144.191 0H124.828L116.597 13.1914H116.283L108.13 0H87.1994L104.603 24.2841L85.3178 51.5663H104.759L114.715 35.5268H115.029L124.985 51.5663ZM85.2974 51.5663H64.3934L43.6494 21.8165L57.4078 21.7729C59.2866 21.6324 60.0926 21.0703 61.0686 20.1803C61.2174 19.9612 61.3342 19.7984 61.4282 19.6668C61.797 19.1513 61.8214 19.1173 62.0938 18.0723L62.1914 17.4633V16.8544C62.045 15.168 61.5566 14.4653 61.0198 13.8564C60.483 13.2474 59.165 12.2637 57.369 12.2637H36.9884L28.79 0.506003L63.2162 0.506026L63.5106 0.505946C66.7234 0.504607 69.593 0.503409 72.1194 1.95814C74.7226 3.40717 76.753 5.4308 78.211 8.02904C79.6686 10.5773 80.3974 13.4504 80.3974 16.6482V17.6226C80.3974 20.8205 79.6686 23.7185 78.211 26.3167C76.753 28.915 74.7226 30.9636 72.1194 32.4626C71.6866 32.7035 71.2438 32.8989 70.791 33.0574L85.2974 51.5663Z" fill="#00002B"/>
<path fill-rule="evenodd" clip-rule="evenodd" d="M63.6874 56.8893L35.3027 16.9668L27.9844 34.5385L43.8758 56.8893H63.6874Z" fill="#FEEB10"/>
<path fill-rule="evenodd" clip-rule="evenodd" d="M45.662 39.5897L17.5138 0L10.2361 17.4742L25.9602 39.5897H45.662Z" fill="#FF5C00"/>
<path fill-rule="evenodd" clip-rule="evenodd" d="M124.985 51.5663H145.994L126.709 24.3591L144.191 0H124.828L116.597 13.1914H116.283L108.13 0H87.1994L104.603 24.2841L85.3178 51.5663H104.759L114.715 35.5268H115.029L124.985 51.5663ZM85.2974 51.5663H64.3934L43.6494 21.8165L57.4078 21.7729C59.2866 21.6324 60.0926 21.0703 61.0686 20.1803C61.2174 19.9612 61.3342 19.7984 61.4282 19.6668C61.797 19.1513 61.8214 19.1173 62.0938 18.0723L62.1914 17.4633V16.8544C62.045 15.168 61.5566 14.4653 61.0198 13.8564C60.483 13.2474 59.165 12.2637 57.369 12.2637H36.9884L28.79 0.506003L63.2162 0.506026L63.5106 0.505946C66.7234 0.504607 69.593 0.503409 72.1194 1.95814C74.7226 3.40717 76.753 5.4308 78.211 8.02904C79.6686 10.5773 80.3974 13.4504 80.3974 16.6482V17.6226C80.3974 20.8205 79.6686 23.7185 78.211 26.3167C76.753 28.915 74.7226 30.9636 72.1194 32.4626C71.6866 32.7035 71.2438 32.8989 70.791 33.0574L85.2974 51.5663Z" fill="#00002B"/>
<path fill-rule="evenodd" clip-rule="evenodd" d="M66.8182 56.8893L38.4338 16.9668L31.1155 34.5385L47.0066 56.8893H66.8182Z" fill="#FEEB10"/>
<path fill-rule="evenodd" clip-rule="evenodd" d="M42.9459 39.5894L14.4688 0L7.10596 17.4742L23.0137 39.5894H42.9459Z" fill="#FF5C00"/>
<path fill-rule="evenodd" clip-rule="evenodd" d="M124.985 51.5663H145.994L126.709 24.3591L144.191 0H124.828L116.597 13.1914H116.283L108.13 0H87.1994L104.603 24.2841L85.3178 51.5663H104.759L114.715 35.5268H115.029L124.985 51.5663ZM85.2974 51.5663H64.3934L43.6494 21.8165L57.4078 21.7729C59.2866 21.6324 60.0926 21.0703 61.0686 20.1803C61.2174 19.9612 61.3342 19.7984 61.4282 19.6668C61.797 19.1513 61.8214 19.1173 62.0938 18.0723L62.1914 17.4633V16.8544C62.045 15.168 61.5566 14.4653 61.0198 13.8564C60.483 13.2474 59.165 12.2637 57.369 12.2637H36.9884L28.79 0.506003L63.2162 0.506026L63.5106 0.505946C66.7234 0.504607 69.593 0.503409 72.1194 1.95814C74.7226 3.40717 76.753 5.4308 78.211 8.02904C79.6686 10.5773 80.3974 13.4504 80.3974 16.6482V17.6226C80.3974 20.8205 79.6686 23.7185 78.211 26.3167C76.753 28.915 74.7226 30.9636 72.1194 32.4626C71.6866 32.7035 71.2438 32.8989 70.791 33.0574L85.2974 51.5663Z" fill="#00002B"/>
<path d="M6.28274 46.7643L6.24326 42.8359L4.25242 46.0865L3.53826 46.0914L1.50892 42.953L1.53797 46.7972L0.0509544 46.8076L0.00146484 40.2602L1.31239 40.251L3.90629 44.3022L6.39954 40.2158L7.7007 40.207L7.76973 46.7544L6.28274 46.7643Z" fill="#00002B"/>
<path d="M14.2849 45.3058L11.1054 45.328L10.5095 46.735L8.8855 46.7461L11.8883 40.1777L13.4536 40.167L16.5652 46.6933L14.9021 46.7048L14.2849 45.3058ZM13.7773 44.1589L12.6724 41.6597L11.6055 44.1738L13.7773 44.1589Z" fill="#00002B"/>
<path d="M20.8494 46.7763C20.1516 46.7809 19.5178 46.642 18.9483 46.359C18.3852 46.0697 17.9386 45.6707 17.6086 45.1616C17.2852 44.6463 17.121 44.0644 17.1161 43.416C17.1112 42.7672 17.2666 42.1865 17.5823 41.6727C17.9045 41.1528 18.3449 40.7477 18.9036 40.457C19.4688 40.1601 20.1036 40.009 20.808 40.004C21.4015 40.0002 21.9371 40.0962 22.4147 40.2925C22.8988 40.4887 23.3054 40.7726 23.6343 41.1444L22.6236 42.0495C22.1567 41.5415 21.5808 41.2898 20.896 41.2944C20.4721 41.2974 20.0945 41.3904 19.7632 41.5736C19.432 41.7504 19.1729 41.9986 18.9862 42.3177C18.806 42.6371 18.7174 42.9994 18.7205 43.4049C18.7236 43.81 18.8176 44.1711 19.0026 44.4879C19.1942 44.8046 19.4569 45.0522 19.7909 45.2308C20.1248 45.403 20.5038 45.4879 20.9277 45.4848C21.6125 45.4802 22.1845 45.2174 22.6436 44.6964L23.6679 45.5873C23.3446 45.9703 22.9425 46.2629 22.4614 46.4657C21.9802 46.6684 21.4429 46.7721 20.8494 46.7763Z" fill="#00002B"/>
<path d="M31.3678 40.0435L31.4173 46.5908L29.8325 46.6019L29.8122 43.9176L26.7012 43.939L26.7215 46.6233L25.1366 46.6344L25.0872 40.0871L26.672 40.076L26.6915 42.6574L29.8025 42.636L29.783 40.0546L31.3678 40.0435Z" fill="#00002B"/>
<path d="M33.3794 40.0296L34.9642 40.0186L35.0137 46.5659L33.4289 46.577L33.3794 40.0296Z" fill="#00002B"/>
<path d="M43.262 39.9609L43.3116 46.5087L42.0104 46.5175L38.5662 42.5657L38.5962 46.5412L37.0309 46.5519L36.9814 40.0045L38.2924 39.9954L41.7268 43.9471L41.6968 39.972L43.262 39.9609Z" fill="#00002B"/>
<path d="M50.6165 45.242L50.6257 46.4577L45.3233 46.4944L45.2737 39.9471L50.4489 39.9111L50.4581 41.1273L46.8581 41.1521L46.8689 42.5741L50.0481 42.5519L50.0573 43.7305L46.8777 43.7523L46.8893 45.2676L50.6165 45.242Z" fill="#00002B"/>
<path d="M26.4993 49.086C26.499 48.9518 26.5232 48.8267 26.5716 48.7108C26.621 48.5937 26.6927 48.4927 26.7866 48.4078C26.8816 48.3221 26.9972 48.2544 27.1336 48.2058C27.271 48.1568 27.4276 48.1323 27.6034 48.1323C27.6798 48.132 27.7569 48.1366 27.8344 48.1457C27.912 48.1549 27.9864 48.1683 28.0578 48.1859C28.1302 48.2024 28.1979 48.2222 28.261 48.246C28.3241 48.2685 28.3789 48.2938 28.4255 48.3217L28.2136 48.6679C28.1132 48.6216 28.0181 48.5876 27.9281 48.5662C27.8392 48.5444 27.7487 48.5336 27.6567 48.534C27.5512 48.534 27.4567 48.5482 27.373 48.5761C27.2893 48.6033 27.218 48.6415 27.1592 48.6913C27.1014 48.7398 27.057 48.798 27.0261 48.8653C26.9962 48.9315 26.9814 49.0038 26.9815 49.0822C26.9816 49.161 26.9978 49.2337 27.0299 49.301C27.0631 49.3672 27.1092 49.4246 27.1682 49.4728C27.2282 49.5206 27.3001 49.5581 27.3839 49.586C27.4687 49.6128 27.5628 49.6258 27.6662 49.6258C27.7799 49.6258 27.8868 49.6094 27.9871 49.5772C28.0883 49.5451 28.1823 49.5019 28.2691 49.4479L28.482 49.7938C28.4273 49.827 28.3679 49.858 28.3039 49.8871C28.2398 49.915 28.1711 49.9395 28.0978 49.9602C28.0254 49.9812 27.949 49.9973 27.8684 50.0088C27.7888 50.021 27.7061 50.0275 27.6203 50.0275C27.4456 50.0279 27.2889 50.0042 27.1504 49.9571C27.0118 49.9097 26.8943 49.8443 26.798 49.7605C26.7018 49.6759 26.6277 49.5761 26.5758 49.4613C26.525 49.3466 26.4995 49.2215 26.4993 49.086Z" fill="#00002B"/>
<path d="M28.8652 49.0785C28.865 48.9473 28.8912 48.8241 28.9437 48.7093C28.9973 48.5946 29.0731 48.494 29.1712 48.4079C29.2703 48.3222 29.3896 48.2541 29.5291 48.2044C29.6696 48.1546 29.8272 48.1294 30.0019 48.1294C30.1766 48.129 30.3338 48.1535 30.4734 48.2028C30.614 48.2526 30.7336 48.3199 30.8319 48.4056C30.9312 48.4913 31.0074 48.5915 31.0603 48.7063C31.1142 48.8211 31.1413 48.9438 31.1415 49.0754C31.1417 49.2067 31.115 49.3298 31.0614 49.4446C31.0089 49.5594 30.9331 49.66 30.834 49.7457C30.7359 49.8317 30.6166 49.8998 30.4761 49.9496C30.3366 49.9993 30.1796 50.0246 30.0048 50.0246C29.8302 50.0249 29.6725 50.0005 29.5318 49.9511C29.3922 49.9014 29.2727 49.834 29.1733 49.7484C29.075 49.6627 28.9988 49.5624 28.9449 49.4477C28.892 49.3329 28.8654 49.2101 28.8652 49.0785ZM29.3475 49.0777C29.3476 49.1512 29.3622 49.2212 29.3912 49.2874C29.4213 49.3524 29.4643 49.4102 29.5202 49.4607C29.5771 49.5104 29.6459 49.5502 29.7266 49.58C29.8083 49.6087 29.9008 49.6233 30.0042 49.6229C30.1076 49.6229 30.1996 49.6083 30.2802 49.5793C30.3618 49.549 30.4305 49.5093 30.4862 49.4595C30.543 49.4086 30.5858 49.3505 30.6146 49.2855C30.6445 49.2193 30.6594 49.1493 30.6593 49.0758C30.6592 49.0028 30.644 48.9328 30.614 48.8666C30.5849 48.8004 30.5419 48.7426 30.485 48.6933C30.4291 48.6424 30.3603 48.603 30.2786 48.5739C30.1979 48.5441 30.1059 48.5292 30.0025 48.5295C29.8991 48.5295 29.8066 48.5448 29.725 48.5747C29.6444 48.6038 29.5758 48.6439 29.519 48.6944C29.4632 48.7442 29.4204 48.8023 29.3906 48.8685C29.3617 48.9347 29.3474 49.0047 29.3475 49.0777Z" fill="#00002B"/>
<path d="M31.6162 48.1594L32.0752 48.1586L32.0755 48.3136C32.1901 48.2432 32.3017 48.1946 32.4101 48.1674C32.5197 48.1395 32.6266 48.1253 32.731 48.125C32.8768 48.125 33.0107 48.1479 33.1328 48.1942C33.2548 48.2405 33.3593 48.3109 33.4463 48.405C33.5134 48.353 33.5795 48.3094 33.6446 48.2742C33.7096 48.2378 33.7747 48.2087 33.8398 48.1869C33.9049 48.1644 33.971 48.1483 34.0382 48.1387C34.1054 48.1284 34.1746 48.1231 34.246 48.1231C34.3959 48.1227 34.5318 48.1433 34.6539 48.1843C34.7759 48.2244 34.8799 48.2849 34.9658 48.3652C35.0528 48.4459 35.1196 48.5465 35.1663 48.6674C35.2141 48.7875 35.2381 48.9264 35.2383 49.0848L35.2397 49.9845L34.7823 49.9849L34.781 49.1598C34.7808 49.0595 34.7662 48.97 34.7372 48.8916C34.7091 48.812 34.6692 48.7455 34.6175 48.6915C34.5667 48.6368 34.5057 48.5955 34.4343 48.568C34.364 48.5389 34.2864 48.5247 34.2016 48.5247C34.1551 48.5247 34.1076 48.5293 34.059 48.5389C34.0104 48.5473 33.9629 48.5607 33.9164 48.5794C33.871 48.5982 33.8281 48.6219 33.7878 48.651C33.7476 48.6789 33.7125 48.7122 33.6826 48.7504L33.6845 49.9864L33.2271 49.9872L33.2258 49.1621C33.2256 49.0618 33.211 48.9723 33.1819 48.8939C33.1539 48.8143 33.114 48.7474 33.0622 48.6938C33.0115 48.6391 32.9499 48.5978 32.8775 48.5699C32.8061 48.5412 32.7276 48.5266 32.6418 48.527C32.589 48.527 32.5358 48.5328 32.482 48.5442C32.4294 48.5546 32.3782 48.5699 32.3286 48.5894C32.2801 48.6093 32.2341 48.633 32.1907 48.6609C32.1484 48.6888 32.1102 48.7206 32.0761 48.7558L32.0781 49.9887L31.6191 49.9895L31.6162 48.1594Z" fill="#00002B"/>
<path d="M36.265 50.7303L35.806 50.7311L35.802 48.1531L36.261 48.1523L36.2612 48.3245C36.3015 48.2965 36.349 48.2701 36.4038 48.2453C36.4585 48.2204 36.5174 48.1986 36.5804 48.1799C36.6434 48.1611 36.7086 48.1466 36.7757 48.1363C36.8429 48.1248 36.9101 48.119 36.9773 48.1187C37.1324 48.1187 37.2745 48.1412 37.4038 48.1864C37.5341 48.2319 37.6459 48.2958 37.739 48.3784C37.8322 48.461 37.9047 48.5601 37.9566 48.6756C38.0095 48.7904 38.0361 48.9178 38.0363 49.057C38.0365 49.2032 38.0093 49.3348 37.9547 49.453C37.9001 49.5697 37.8243 49.6703 37.7273 49.7541C37.6313 49.8371 37.5166 49.9013 37.3833 49.9469C37.2511 49.9916 37.1074 50.0142 36.9524 50.0142C36.8862 50.0146 36.8206 50.0104 36.7554 50.0023C36.6913 49.9939 36.6293 49.9828 36.5693 49.9683C36.5103 49.9537 36.4545 49.9369 36.4017 49.9174C36.35 49.8967 36.304 49.8746 36.2636 49.8508L36.265 50.7303ZM36.2629 49.4071C36.3095 49.4446 36.3587 49.4759 36.4104 49.5016C36.4621 49.5276 36.5149 49.5486 36.5686 49.5651C36.6224 49.5815 36.6767 49.5938 36.7315 49.6022C36.7863 49.6091 36.8396 49.6129 36.8912 49.6125C36.9967 49.6125 37.0902 49.5984 37.1718 49.5704C37.2545 49.5414 37.3237 49.502 37.3795 49.4522C37.4362 49.4025 37.4795 49.344 37.5094 49.2766C37.5393 49.2093 37.5542 49.1366 37.5541 49.0578C37.5539 48.9844 37.5388 48.9151 37.5087 48.8501C37.4797 48.7851 37.4372 48.7281 37.3813 48.6799C37.3264 48.6301 37.2597 48.5915 37.1811 48.5636C37.1035 48.5349 37.0162 48.5203 36.919 48.5207C36.857 48.5207 36.795 48.5268 36.733 48.5395C36.671 48.5509 36.611 48.5678 36.5532 48.5896C36.4963 48.611 36.4426 48.6378 36.392 48.6688C36.3424 48.6997 36.2991 48.7346 36.2619 48.7728L36.2629 49.4071Z" fill="#00002B"/>
<path d="M38.3857 49.4025C38.3856 49.3149 38.4046 49.2346 38.4427 49.1623C38.4809 49.0896 38.5381 49.0276 38.6145 48.9756C38.6909 48.9228 38.786 48.8826 38.8997 48.8543C39.0143 48.8252 39.1477 48.8107 39.2997 48.8103C39.4124 48.8103 39.5307 48.8184 39.6548 48.8348C39.7799 48.8509 39.9086 48.8761 40.041 48.9102C40.0358 48.8524 40.0182 48.7989 39.988 48.7503C39.958 48.7009 39.916 48.6585 39.8622 48.6233C39.8095 48.5873 39.7453 48.5594 39.6698 48.5399C39.5954 48.5204 39.5106 48.5108 39.4155 48.5108C39.3638 48.5108 39.3069 48.5142 39.2449 48.5204C39.1829 48.5269 39.1188 48.536 39.0527 48.5487C38.9865 48.5609 38.9209 48.5766 38.8558 48.5953C38.7918 48.6141 38.7319 48.6363 38.6761 48.6623L38.5359 48.2855C38.6051 48.2606 38.679 48.238 38.7575 48.217C38.8371 48.1963 38.9182 48.1787 39.0009 48.1638C39.0836 48.1485 39.1663 48.1363 39.2489 48.1279C39.3316 48.1194 39.4118 48.1152 39.4893 48.1152C39.8315 48.1149 40.0858 48.2017 40.2526 48.3761C40.4194 48.5506 40.503 48.8184 40.5034 49.1795L40.505 49.9767L40.0458 49.9771L40.0454 49.805C39.998 49.8333 39.9458 49.8597 39.889 49.8845C39.8332 49.9094 39.7723 49.9312 39.7062 49.9499C39.64 49.9687 39.5687 49.9832 39.4922 49.9936C39.4168 50.005 39.3367 50.0108 39.2519 50.0112C39.1093 50.0112 38.9836 49.9959 38.8751 49.9649C38.7675 49.9343 38.6775 49.8914 38.6051 49.8367C38.5326 49.782 38.4777 49.7177 38.4404 49.6447C38.4041 49.5701 38.3859 49.4894 38.3857 49.4025ZM38.8695 49.3865C38.8695 49.4163 38.8773 49.4454 38.8929 49.4733C38.9084 49.5001 38.9333 49.5245 38.9674 49.546C39.0016 49.5666 39.045 49.5838 39.0977 49.5972C39.1515 49.6095 39.2161 49.6156 39.2916 49.6156C39.3722 49.6152 39.4503 49.6079 39.5257 49.5934C39.6011 49.5789 39.6714 49.5594 39.7365 49.5356C39.8016 49.5119 39.8605 49.4844 39.9132 49.453C39.9658 49.422 40.0098 49.3899 40.045 49.357L40.0446 49.2763C39.9744 49.2568 39.9046 49.2403 39.8353 49.2269C39.767 49.2135 39.7014 49.2032 39.6383 49.1959C39.5763 49.1879 39.5173 49.1822 39.4615 49.1795C39.4067 49.1764 39.3586 49.1749 39.3173 49.1749C39.2315 49.1749 39.1601 49.1806 39.1033 49.1921C39.0465 49.2036 39.0005 49.2193 38.9654 49.2388C38.9303 49.2575 38.9055 49.2797 38.8911 49.3057C38.8766 49.3317 38.8695 49.3585 38.8695 49.3865Z" fill="#00002B"/>
<path d="M41.1094 48.1449L41.5682 48.1441L41.5686 48.2994C41.6906 48.2298 41.8066 48.1812 41.9174 48.1529C42.029 48.125 42.1378 48.1108 42.2442 48.1108C42.3838 48.1105 42.513 48.1311 42.6322 48.1721C42.751 48.2122 42.8538 48.2727 42.941 48.3534C43.0278 48.4337 43.0958 48.5343 43.1446 48.6552C43.1942 48.7753 43.2194 48.9142 43.2198 49.0726L43.221 49.9723L42.7638 49.9727L42.7622 49.1476C42.7622 49.0473 42.7474 48.9578 42.7186 48.8794C42.6906 48.7998 42.6494 48.7333 42.5958 48.6793C42.543 48.6246 42.4782 48.5833 42.4018 48.5558C42.3262 48.5267 42.2414 48.5125 42.1474 48.5125C42.0978 48.5125 42.0466 48.5179 41.9938 48.5282C41.9422 48.5385 41.891 48.5538 41.8402 48.5734C41.7906 48.5921 41.7426 48.6162 41.6962 48.6449C41.6498 48.6732 41.6074 48.7053 41.5694 48.7413L41.5714 49.9746L41.1122 49.975L41.1094 48.1449Z" fill="#00002B"/>
<path d="M44.0045 50.2019C44.0521 50.2329 44.1037 50.26 44.1597 50.2837C44.2153 50.3075 44.2733 50.327 44.3333 50.3423C44.3945 50.358 44.4565 50.3691 44.5193 50.3763C44.5825 50.3844 44.6449 50.3886 44.7069 50.3886C44.9181 50.3882 45.0801 50.3423 45.1937 50.2512C45.3085 50.1609 45.3657 50.0255 45.3653 49.8446V49.7826C45.3249 49.8105 45.2793 49.8365 45.2289 49.8603C45.1793 49.8832 45.1253 49.9027 45.0677 49.9196C45.0109 49.936 44.9505 49.949 44.8861 49.9586C44.8233 49.967 44.7593 49.9712 44.6941 49.9712C44.5545 49.9716 44.4293 49.9513 44.3185 49.9111C44.2089 49.8702 44.1161 49.8101 44.0393 49.7317C43.9637 49.6521 43.9057 49.5546 43.8653 49.4387C43.8245 49.3232 43.8041 49.1908 43.8041 49.042L43.8025 48.1422L44.2601 48.1415L44.2613 48.9138C44.2617 49.1353 44.3037 49.2987 44.3877 49.4039C44.4725 49.5083 44.6061 49.5603 44.7881 49.56C44.9161 49.56 45.0293 49.5374 45.1273 49.493C45.2265 49.4471 45.3057 49.3893 45.3645 49.3189L45.3625 48.1399L45.8217 48.1392L45.8241 49.76C45.8245 49.9349 45.7997 50.0863 45.7505 50.2149C45.7009 50.3442 45.6289 50.4513 45.5337 50.5362C45.4397 50.6212 45.3241 50.6843 45.1869 50.726C45.0493 50.7684 44.8933 50.7899 44.7185 50.7902C44.5481 50.7902 44.3889 50.7726 44.2409 50.7367C44.0929 50.7007 43.9577 50.6518 43.8345 50.5898L44.0045 50.2019Z" fill="#00002B"/>
</svg>
